<svg width="150" height="191" viewBox="0 0 150 191" fill="none" xmlns="http://www.w3.org/2000/svg">
<g clip-path="url(#clip0_3_9)">
<path d="M137.807 0.44238L44.0654 28.125C42.1626 28.7227 40.4999 29.9118 39.3192 31.5193C38.1385 33.1268 37.5012 35.0689 37.5 37.0635V113.648C34.4301 112.903 31.284 112.518 28.125 112.5C12.5977 112.5 0 120.896 0 131.25C0 141.604 12.5977 150 28.125 150C43.6523 150 56.25 141.604 56.25 131.25V62.7891L131.25 40.8164V94.9014C128.181 94.1537 125.034 93.7672 121.875 93.75C106.348 93.75 93.75 102.146 93.75 112.5C93.75 122.854 106.348 131.25 121.875 131.25C137.402 131.25 150 122.856 150 112.5V9.375C149.999 7.90324 149.651 6.45248 148.985 5.14013C148.318 3.82778 147.353 2.69071 146.165 1.82095C144.978 0.951191 143.603 0.373171 142.151 0.133674C140.698 -0.105823 139.21 -6.76941e-05 137.807 0.44238V0.44238Z" fill="white"/>
</g>
<path d="M42.2852 175.027H35.6758L34.293 179H31.2109L37.6562 161.938H40.3164L46.7734 179H43.6797L42.2852 175.027ZM36.5078 172.637H41.4531L38.9805 165.559L36.5078 172.637ZM55.9844 177.758C55.1484 178.742 53.9609 179.234 52.4219 179.234C51.0469 179.234 50.0039 178.832 49.293 178.027C48.5898 177.223 48.2383 176.059 48.2383 174.535V166.32H51.0859V174.5C51.0859 176.109 51.7539 176.914 53.0898 176.914C54.4727 176.914 55.4062 176.418 55.8906 175.426V166.32H58.7383V179H56.0547L55.9844 177.758ZM61.1055 172.566C61.1055 170.613 61.5586 169.047 62.4648 167.867C63.3711 166.68 64.5859 166.086 66.1094 166.086C67.4531 166.086 68.5391 166.555 69.3672 167.492V161H72.2148V179H69.6367L69.4961 177.688C68.6445 178.719 67.5078 179.234 66.0859 179.234C64.6016 179.234 63.3984 178.637 62.4766 177.441C61.5625 176.246 61.1055 174.621 61.1055 172.566ZM63.9531 172.812C63.9531 174.102 64.1992 175.109 64.6914 175.836C65.1914 176.555 65.8984 176.914 66.8125 176.914C67.9766 176.914 68.8281 176.395 69.3672 175.355V169.941C68.8438 168.926 68 168.418 66.8359 168.418C65.9141 168.418 65.2031 168.785 64.7031 169.52C64.2031 170.246 63.9531 171.344 63.9531 172.812ZM78.2148 179H75.3672V166.32H78.2148V179ZM75.1914 163.027C75.1914 162.59 75.3281 162.227 75.6016 161.938C75.8828 161.648 76.2812 161.504 76.7969 161.504C77.3125 161.504 77.7109 161.648 77.9922 161.938C78.2734 162.227 78.4141 162.59 78.4141 163.027C78.4141 163.457 78.2734 163.816 77.9922 164.105C77.7109 164.387 77.3125 164.527 76.7969 164.527C76.2812 164.527 75.8828 164.387 75.6016 164.105C75.3281 163.816 75.1914 163.457 75.1914 163.027ZM80.793 172.543C80.793 171.301 81.0391 170.184 81.5312 169.191C82.0234 168.191 82.7148 167.426 83.6055 166.895C84.4961 166.355 85.5195 166.086 86.6758 166.086C88.3867 166.086 89.7734 166.637 90.8359 167.738C91.9062 168.84 92.4844 170.301 92.5703 172.121L92.582 172.789C92.582 174.039 92.3398 175.156 91.8555 176.141C91.3789 177.125 90.6914 177.887 89.793 178.426C88.9023 178.965 87.8711 179.234 86.6992 179.234C84.9102 179.234 83.4766 178.641 82.3984 177.453C81.3281 176.258 80.793 174.668 80.793 172.684V172.543ZM83.6406 172.789C83.6406 174.094 83.9102 175.117 84.4492 175.859C84.9883 176.594 85.7383 176.961 86.6992 176.961C87.6602 176.961 88.4062 176.586 88.9375 175.836C89.4766 175.086 89.7461 173.988 89.7461 172.543C89.7461 171.262 89.4688 170.246 88.9141 169.496C88.3672 168.746 87.6211 168.371 86.6758 168.371C85.7461 168.371 85.0078 168.742 84.4609 169.484C83.9141 170.219 83.6406 171.32 83.6406 172.789ZM111.074 171.77H104.207V179H101.242V161.938H112.082V164.328H104.207V169.402H111.074V171.77ZM117.566 179H114.613V161.938H117.566V179ZM123.965 179H121.117V161H123.965V179ZM132.66 179.234C130.855 179.234 129.391 178.668 128.266 177.535C127.148 176.395 126.59 174.879 126.59 172.988V172.637C126.59 171.371 126.832 170.242 127.316 169.25C127.809 168.25 128.496 167.473 129.379 166.918C130.262 166.363 131.246 166.086 132.332 166.086C134.059 166.086 135.391 166.637 136.328 167.738C137.273 168.84 137.746 170.398 137.746 172.414V173.562H129.461C129.547 174.609 129.895 175.438 130.504 176.047C131.121 176.656 131.895 176.961 132.824 176.961C134.129 176.961 135.191 176.434 136.012 175.379L137.547 176.844C137.039 177.602 136.359 178.191 135.508 178.613C134.664 179.027 133.715 179.234 132.66 179.234ZM132.32 168.371C131.539 168.371 130.906 168.645 130.422 169.191C129.945 169.738 129.641 170.5 129.508 171.477H134.934V171.266C134.871 170.312 134.617 169.594 134.172 169.109C133.727 168.617 133.109 168.371 132.32 168.371Z" fill="white"/>
<defs>
<clipPath id="clip0_3_9">
<rect width="150" height="150" fill="white"/>
</clipPath>
</defs>
</svg>
